{"glyphs":{":":{"x_min":0,"x_max":218,"ha":218,"o":"m 110 286 q 80 286 60 306 q 41 327 41 354 q 41 382 60 402 q 80 422 110 422 q 137 422 157 402 q 177 382 177 354 q 177 327 157 306 q 137 286 110 286 z m 110 -6 q 80 -6 60 14 q 41 35 41 62 q 41 90 60 110 q 80 130 110 130 q 137 130 157 110 q 177 90 177 62 q 177 35 157 14 q 137 -6 110 -6 z"},"$":{"x_min":0,"x_max":529,"ha":529,"o":"m 275 -52 q 261 -52 251 -44 q 241 -37 241 -27 l 241 1 q 180 2 132 22 q 84 41 56 69 q 28 97 28 125 q 28 139 36 156 q 44 172 57 184 q 70 195 85 195 q 99 195 113 185 q 127 175 144 161 q 161 147 184 136 q 208 124 241 120 l 241 319 q 207 332 172 347 q 138 362 110 384 q 81 406 64 439 q 46 472 46 520 q 46 568 62 602 q 78 637 106 660 q 133 683 168 696 q 203 710 241 715 l 241 743 q 241 753 251 760 q 261 768 275 768 q 287 768 298 760 q 308 753 308 743 l 308 717 q 333 716 362 712 q 392 707 418 698 q 445 689 462 674 q 480 660 480 638 q 480 627 474 610 q 468 594 457 582 q 446 569 427 569 q 413 569 398 577 q 384 585 364 594 q 343 604 308 606 l 308 430 q 342 418 376 402 q 409 385 436 362 q 464 338 481 302 q 498 267 498 216 q 498 124 446 70 q 393 17 308 4 l 308 -27 q 308 -37 298 -44 q 287 -52 275 -52 z m 301 121 q 334 128 355 148 q 376 168 376 203 q 376 228 366 244 q 356 261 339 274 q 322 286 301 295 z m 249 452 l 249 603 q 224 600 206 590 q 188 581 178 566 q 168 552 168 533 q 168 512 178 496 q 189 481 208 471 q 226 461 249 452 z"},"?":{"x_min":0,"x_max":438,"ha":438,"o":"m 194 202 q 168 202 158 214 q 147 225 147 258 q 147 305 156 335 q 165 365 180 384 q 194 404 207 416 q 220 429 237 442 q 254 455 270 471 q 285 487 295 507 q 305 527 305 552 q 305 595 276 616 q 248 638 202 638 q 166 638 146 628 q 127 617 117 603 q 107 589 98 579 q 88 569 71 569 q 55 569 38 581 q 21 593 21 617 q 21 641 42 668 q 63 696 104 716 q 145 735 206 735 q 269 735 316 712 q 362 690 387 652 q 412 614 412 566 q 412 528 398 496 q 383 465 364 440 q 344 415 324 398 q 304 381 293 370 q 269 351 258 331 q 248 311 246 289 q 244 267 244 238 q 244 225 234 214 q 224 202 194 202 z m 194 -6 q 166 -6 146 14 q 127 35 127 62 q 127 90 147 110 q 167 130 194 130 q 223 130 242 110 q 262 90 262 62 q 262 35 242 14 q 223 -6 194 -6 z"},"<":{"x_min":0,"x_max":420,"ha":420,"o":"m 323 56 q 312 56 306 61 l 48 229 q 34 238 28 252 q 21 266 21 277 q 21 288 28 302 q 34 316 48 325 l 306 494 q 312 498 323 498 q 343 498 362 480 q 381 463 381 437 q 381 413 365 404 l 171 277 l 365 151 q 381 141 381 117 q 381 91 362 74 q 343 56 323 56 z"},"'":{"x_min":0,"x_max":151,"ha":151,"o":"m 75 564 q 55 564 46 574 q 37 585 37 597 l 27 735 q 27 750 42 759 q 57 768 75 768 q 93 768 108 759 q 123 750 123 735 l 113 597 q 113 585 104 574 q 95 564 75 564 z"},"=":{"x_min":0,"x_max":444,"ha":444,"o":"m 93 294 q 75 294 64 308 q 53 323 53 347 q 53 370 64 386 q 75 401 93 401 l 351 401 q 367 401 380 386 q 392 370 392 347 q 392 323 380 308 q 367 294 351 294 z m 93 91 q 75 91 64 106 q 53 120 53 144 q 53 167 64 182 q 75 198 93 198 l 351 198 q 367 198 380 182 q 392 167 392 144 q 392 120 380 106 q 367 91 351 91 z"},"a":{"x_min":0,"x_max":471,"ha":471,"o":"m 152 -9 q 99 -9 60 24 q 22 56 22 124 q 22 181 52 213 q 81 245 134 258 q 186 271 255 271 l 296 271 l 296 284 q 296 306 288 327 q 279 348 260 362 q 242 376 208 376 q 170 376 150 368 q 129 361 118 353 q 107 345 94 345 q 73 345 62 366 q 50 387 50 409 q 50 430 76 446 q 101 463 138 472 q 175 481 210 481 q 288 481 335 453 q 382 425 404 381 q 425 337 425 286 l 425 41 q 425 24 407 12 q 389 0 362 0 q 337 0 320 12 q 304 24 304 41 l 304 70 q 277 39 240 15 q 204 -9 152 -9 z m 204 87 q 225 87 246 101 q 267 115 282 137 q 296 159 296 183 l 296 204 l 281 204 q 248 204 218 200 q 188 196 170 182 q 151 169 151 141 q 151 113 166 100 q 182 87 204 87 z"},"L":{"x_min":0,"x_max":483,"ha":483,"o":"m 117 0 q 96 0 78 10 q 60 21 60 41 l 60 691 q 60 712 80 722 q 101 731 125 731 q 150 731 170 722 q 190 712 190 691 l 190 114 l 435 114 q 454 114 464 96 q 473 79 473 57 q 473 36 464 18 q 454 0 435 0 z"},"3":{"x_min":0,"x_max":521,"ha":521,"o":"m 249 -6 q 188 -6 144 11 q 101 28 73 55 q 45 82 32 114 q 20 146 20 176 q 20 206 34 216 q 47 227 81 227 q 121 227 134 216 q 148 206 148 181 q 148 164 155 150 q 162 137 176 128 q 189 118 208 113 q 228 108 252 108 q 308 108 334 133 q 359 158 359 216 l 359 235 q 359 290 328 310 q 298 330 250 330 q 228 330 219 346 q 210 362 210 381 q 210 400 219 416 q 228 432 249 432 q 274 432 295 438 q 316 445 328 466 q 341 487 341 530 q 341 580 318 599 q 294 618 253 618 q 229 618 212 614 q 195 609 184 600 q 173 591 168 579 q 164 567 164 551 q 164 529 152 515 q 139 501 103 501 q 73 501 59 506 q 45 511 40 524 q 35 536 35 557 q 35 584 46 614 q 57 644 82 671 q 107 698 149 714 q 191 731 254 731 q 315 731 362 714 q 410 697 438 658 q 466 619 466 552 q 466 493 445 448 q 424 403 387 386 q 431 369 460 333 q 489 297 489 235 l 489 216 q 489 135 456 86 q 424 38 370 16 q 315 -6 249 -6 z"},";":{"x_min":0,"x_max":218,"ha":218,"o":"m 92 -100 q 78 -100 64 -92 q 49 -83 49 -66 q 49 -59 53 -52 l 76 1 q 60 11 50 26 q 39 42 39 62 q 39 90 59 110 q 79 130 106 130 q 134 130 154 110 q 174 91 174 63 q 174 59 173 52 q 172 46 166 32 q 161 18 150 -10 q 139 -37 119 -83 q 115 -92 107 -96 q 99 -100 92 -100 z m 112 286 q 83 286 64 306 q 44 327 44 354 q 44 382 64 402 q 83 422 112 422 q 139 422 159 402 q 179 382 179 354 q 179 327 159 306 q 139 286 112 286 z"},"J":{"x_min":0,"x_max":537,"ha":537,"o":"m 249 -6 q 181 -6 126 18 q 72 42 41 87 q 10 132 10 193 q 10 231 26 244 q 43 256 76 256 q 101 256 120 248 q 139 239 140 215 q 142 191 150 166 q 159 141 181 124 q 203 108 244 108 q 295 108 322 136 q 350 165 350 223 l 350 617 l 247 617 q 228 617 218 634 q 207 651 207 675 q 207 695 216 713 q 226 731 247 731 l 422 731 q 444 731 462 720 q 480 710 480 690 l 480 223 q 480 140 448 90 q 417 39 365 16 q 313 -6 249 -6 z"},"V":{"x_min":0,"x_max":574,"ha":574,"o":"m 287 -6 q 259 -6 234 5 q 210 16 204 38 l 10 667 q 8 674 8 677 q 8 693 21 705 q 34 717 54 724 q 73 731 91 731 q 107 731 119 726 q 131 720 134 705 l 287 163 l 439 705 q 444 720 456 726 q 467 731 483 731 q 501 731 520 724 q 539 717 552 705 q 565 693 565 677 q 565 675 564 672 q 564 670 564 667 l 371 38 q 365 16 340 5 q 316 -6 287 -6 z"},"\"":{"x_min":0,"x_max":302,"ha":302,"o":"m 226 564 q 206 564 198 574 q 189 585 189 597 l 179 735 q 179 750 194 759 q 208 768 226 768 q 244 768 260 759 q 275 750 275 735 l 265 597 q 265 585 256 574 q 247 564 226 564 z m 75 564 q 55 564 46 574 q 37 585 37 597 l 27 735 q 27 750 42 759 q 57 768 75 768 q 93 768 108 759 q 123 750 123 735 l 113 597 q 113 585 104 574 q 95 564 75 564 z"},"7":{"x_min":0,"x_max":497,"ha":497,"o":"m 170 -5 q 151 -5 132 4 q 112 12 100 27 q 89 42 89 60 q 89 72 95 83 l 356 551 l 356 617 l 147 617 l 147 536 q 147 519 127 506 q 107 494 81 494 q 55 494 36 506 q 17 519 17 536 l 17 690 q 17 705 35 718 q 53 731 74 731 l 429 731 q 448 731 467 718 q 486 705 486 690 l 486 576 q 486 561 478 540 q 470 518 460 500 l 208 14 q 198 -5 170 -5 z"},"S":{"x_min":0,"x_max":522,"ha":522,"o":"m 255 -9 q 190 -9 138 10 q 85 29 54 58 q 24 86 24 115 q 24 129 32 146 q 39 162 52 174 q 65 185 81 185 q 97 185 111 174 q 125 162 143 146 q 161 131 187 120 q 213 108 251 108 q 281 108 306 118 q 332 127 348 146 q 363 165 363 195 q 363 227 346 249 q 329 271 300 287 q 271 303 237 318 q 203 333 168 350 q 134 367 106 391 q 77 415 60 450 q 42 485 42 536 q 42 592 64 630 q 85 668 120 692 q 156 715 199 726 q 242 736 285 736 q 308 736 340 732 q 371 729 402 720 q 434 711 454 696 q 475 680 475 656 q 475 644 470 628 q 464 612 452 600 q 441 587 423 587 q 407 587 392 596 q 376 606 352 616 q 327 625 285 625 q 250 625 224 616 q 198 606 185 590 q 172 573 172 548 q 172 522 190 504 q 207 486 236 472 q 264 458 298 444 q 332 430 366 412 q 401 393 430 367 q 459 341 476 302 q 493 264 493 208 q 493 137 462 88 q 431 40 378 16 q 324 -9 255 -9 z"},"}":{"x_min":0,"x_max":359,"ha":359,"o":"m 87 -20 q 52 -20 33 -6 q 14 7 14 36 q 14 47 18 60 q 21 72 30 81 q 39 90 54 90 q 68 90 87 93 q 106 96 124 104 q 141 111 153 124 q 165 136 165 156 q 165 165 162 188 q 160 212 157 240 q 154 269 152 293 q 149 317 149 326 q 149 347 162 364 q 174 381 184 384 q 175 387 162 404 q 149 422 149 443 q 149 452 152 470 q 154 488 157 510 q 160 532 162 550 q 165 569 165 579 q 165 607 146 624 q 127 642 101 650 q 75 658 54 658 q 34 658 24 675 q 14 692 14 711 q 14 731 28 750 q 43 768 86 768 q 125 768 162 754 q 200 740 230 716 q 259 692 277 661 q 295 630 295 596 q 295 584 292 564 q 290 544 287 523 q 284 502 282 484 q 279 467 279 459 q 279 444 288 440 q 297 435 309 432 q 321 428 330 418 q 339 409 339 386 q 339 363 330 354 q 321 344 309 340 q 297 337 288 332 q 279 326 279 311 q 279 304 280 288 q 282 273 284 252 q 287 231 290 209 q 292 187 294 170 q 295 152 295 141 q 295 94 264 58 q 234 21 186 0 q 139 -20 87 -20 z"},"Z":{"x_min":0,"x_max":520,"ha":520,"o":"m 52 0 q 32 0 22 10 q 13 20 13 36 q 13 57 27 81 l 324 617 l 71 617 q 52 617 42 634 q 31 651 31 674 q 31 695 40 713 q 50 731 71 731 l 451 731 q 471 731 480 721 q 490 711 490 696 q 490 675 475 649 l 179 114 l 467 114 q 487 114 498 96 q 508 77 508 57 q 508 37 498 18 q 487 0 467 0 z"},"x":{"x_min":0,"x_max":469,"ha":469,"o":"m 102 -9 q 89 -9 70 0 q 50 10 35 25 q 20 40 20 55 q 20 66 28 77 l 146 242 l 36 395 q 34 398 31 404 q 28 410 28 416 q 28 431 42 446 q 57 461 77 471 q 97 481 114 481 q 119 481 128 478 q 137 476 143 467 l 234 321 l 326 466 q 331 475 340 478 q 349 481 357 481 q 372 481 392 471 q 412 461 426 446 q 441 432 441 416 q 441 407 433 395 l 322 241 l 441 77 q 444 74 446 68 q 449 62 449 55 q 449 41 435 26 q 421 12 402 2 q 383 -9 365 -9 q 357 -9 348 -6 q 340 -3 335 5 l 234 157 l 134 5 q 129 -2 120 -6 q 110 -9 102 -9 z"},")":{"x_min":0,"x_max":341,"ha":341,"o":"m 82 -20 q 40 -20 28 -4 q 15 11 15 36 q 15 57 23 75 q 31 93 56 93 q 80 93 104 99 q 129 105 146 120 q 162 136 162 166 l 162 568 q 162 589 150 609 q 138 629 114 642 q 90 655 56 655 q 38 655 26 670 q 15 686 15 712 q 15 735 28 752 q 42 768 79 768 q 118 768 156 754 q 193 740 224 714 q 255 687 274 650 q 292 613 292 568 l 292 166 q 292 118 274 82 q 256 46 225 24 q 194 1 157 -10 q 120 -20 82 -20 z"},"&":{"x_min":0,"x_max":642,"ha":642,"o":"m 274 -10 q 197 -10 140 20 q 84 51 54 102 q 23 152 23 210 q 23 256 40 296 q 58 335 86 366 q 115 396 148 413 q 119 446 98 482 q 78 518 78 567 q 78 625 106 665 q 134 705 182 726 q 230 748 287 748 q 348 748 392 728 q 436 709 460 682 q 484 655 484 631 q 484 609 464 590 q 445 571 422 571 q 406 571 394 582 q 382 593 369 608 q 356 622 338 633 q 319 644 289 644 q 251 644 226 622 q 200 601 200 561 q 200 531 217 502 q 234 474 258 448 q 282 423 303 401 l 464 231 q 480 270 482 306 q 484 341 486 365 q 488 384 499 394 q 510 404 544 404 q 577 404 588 388 q 599 372 599 344 q 599 319 593 286 q 587 254 575 219 q 563 184 543 150 l 623 66 q 628 60 630 54 q 632 49 632 44 q 632 24 613 8 q 594 -9 572 -9 q 563 -9 556 -6 q 549 -2 539 6 l 478 70 q 440 35 390 12 q 339 -10 274 -10 z m 289 103 q 328 103 356 116 q 383 129 401 149 l 220 337 q 204 325 188 308 q 173 292 164 270 q 154 249 154 221 q 154 188 170 162 q 185 135 215 119 q 245 103 289 103 z"},"_":{"x_min":0,"x_max":314,"ha":314,"o":"m -3 -107 q -21 -107 -32 -92 q -43 -77 -43 -54 q -43 -31 -32 -16 q -21 0 -3 0 l 317 0 q 333 0 346 -16 q 359 -31 359 -54 q 359 -77 346 -92 q 333 -107 317 -107 z"},"v":{"x_min":0,"x_max":479,"ha":479,"o":"m 240 -11 q 220 -11 203 -5 q 186 1 181 12 l 10 408 q 8 411 6 416 q 5 422 5 426 q 5 441 20 454 q 34 466 54 474 q 74 481 91 481 q 103 481 114 476 q 124 471 128 459 l 240 169 l 351 457 q 355 470 365 476 q 375 481 388 481 q 401 481 422 474 q 442 466 458 453 q 474 440 474 425 q 474 420 473 416 q 472 412 470 408 l 298 12 q 293 1 276 -5 q 259 -11 240 -11 z"},"O":{"x_min":0,"x_max":574,"ha":574,"o":"m 287 -6 q 221 -6 168 16 q 115 39 84 90 q 53 140 53 223 l 53 502 q 53 585 84 636 q 115 686 168 708 q 220 731 287 731 q 353 731 406 708 q 460 686 491 636 q 522 585 522 502 l 522 223 q 522 140 491 90 q 460 39 406 16 q 353 -6 287 -6 z m 287 108 q 336 108 364 136 q 392 164 392 223 l 392 502 q 392 561 364 589 q 336 617 287 617 q 238 617 210 589 q 182 561 182 502 l 182 223 q 182 164 210 136 q 238 108 287 108 z"},"(":{"x_min":0,"x_max":341,"ha":341,"o":"m 258 -20 q 221 -20 184 -10 q 147 1 116 24 q 85 46 66 82 q 48 118 48 166 l 48 568 q 48 613 67 650 q 86 687 117 714 q 148 740 186 754 q 223 768 261 768 q 300 768 312 752 q 325 735 325 712 q 325 686 314 670 q 303 655 285 655 q 251 655 227 642 q 203 629 190 609 q 178 589 178 568 l 178 166 q 178 136 195 120 q 212 105 237 99 q 262 93 285 93 q 310 93 318 75 q 325 57 325 36 q 325 11 313 -4 q 301 -20 258 -20 z"},"C":{"x_min":0,"x_max":551,"ha":551,"o":"m 283 -6 q 221 -6 168 16 q 115 39 84 90 q 53 140 53 223 l 53 502 q 53 585 84 636 q 115 686 168 708 q 221 731 284 731 q 354 731 408 708 q 461 684 492 642 q 522 600 522 541 q 522 502 506 490 q 490 477 457 477 q 430 477 412 486 q 393 496 392 518 q 392 530 388 546 q 385 563 375 579 q 365 595 344 606 q 324 617 288 617 q 237 617 210 588 q 182 560 182 502 l 182 223 q 182 164 210 136 q 238 108 290 108 q 324 108 344 119 q 364 130 374 146 q 383 163 386 181 q 390 199 392 215 q 394 238 412 247 q 430 256 456 256 q 490 256 506 243 q 522 230 522 192 q 522 132 492 87 q 461 42 407 18 q 353 -6 283 -6 z"},"W":{"x_min":0,"x_max":881,"ha":881,"o":"m 293 -6 q 265 -6 240 5 q 215 16 208 38 l 10 667 q 8 673 8 679 q 8 694 21 706 q 34 717 54 724 q 73 731 91 731 q 106 731 118 725 q 131 719 134 705 l 292 163 l 377 511 q 382 529 400 538 q 419 547 440 547 q 463 547 482 538 q 500 529 504 511 l 589 163 l 747 705 q 751 719 763 725 q 775 731 790 731 q 809 731 828 724 q 847 717 860 706 q 873 694 873 679 q 873 673 871 667 l 673 38 q 665 16 641 5 q 617 -6 588 -6 q 560 -6 535 5 q 510 16 505 38 l 440 308 l 376 38 q 371 16 346 5 q 321 -6 293 -6 z"},"A":{"x_min":0,"x_max":574,"ha":574,"o":"m 91 0 q 73 0 54 7 q 35 14 22 26 q 9 38 9 54 q 9 57 10 64 l 203 693 q 210 715 234 726 q 259 737 287 737 q 316 737 340 726 q 364 715 371 693 l 564 64 q 566 57 566 54 q 566 39 552 26 q 539 14 520 7 q 501 0 483 0 q 467 0 456 6 q 444 11 440 26 l 402 159 l 172 159 l 135 26 q 131 11 119 6 q 107 0 91 0 z m 200 261 l 374 261 l 287 568 z"},"f":{"x_min":0,"x_max":340,"ha":340,"o":"m 114 0 q 87 0 69 12 q 51 23 51 40 l 51 556 q 51 612 75 656 q 99 701 139 726 q 179 752 227 752 l 286 752 q 310 752 322 735 q 335 718 335 698 q 335 676 322 660 q 310 643 286 643 l 254 643 q 233 643 216 634 q 199 625 190 609 q 180 593 180 570 l 180 475 l 302 475 q 318 475 326 460 q 335 446 335 428 q 335 410 326 396 q 318 381 302 381 l 180 381 l 180 40 q 180 23 160 12 q 141 0 114 0 z"},"Q":{"x_min":0,"x_max":574,"ha":574,"o":"m 287 -109 q 271 -109 258 -98 q 245 -88 245 -68 l 245 -3 q 190 3 146 28 q 102 53 78 101 q 53 149 53 223 l 53 502 q 53 586 84 636 q 115 686 168 708 q 221 731 287 731 q 353 731 406 708 q 460 686 491 636 q 522 586 522 502 l 522 223 q 522 149 497 101 q 472 53 428 28 q 384 3 328 -3 l 328 -68 q 328 -88 315 -98 q 302 -109 287 -109 z m 245 116 l 245 169 q 245 190 258 200 q 271 209 287 209 q 302 209 315 200 q 328 190 328 169 l 328 116 q 358 126 375 152 q 392 179 392 223 l 392 502 q 392 560 364 588 q 336 617 287 617 q 238 617 210 588 q 182 560 182 502 l 182 223 q 182 179 198 152 q 215 126 245 116 z"},"w":{"x_min":0,"x_max":692,"ha":692,"o":"m 215 -11 q 198 -11 184 -6 q 170 -1 165 13 l 10 408 q 8 415 7 420 q 6 424 6 427 q 6 443 20 454 q 33 466 53 473 q 73 480 89 480 q 102 480 112 475 q 123 470 127 459 l 227 175 l 302 422 q 307 439 319 444 q 331 448 346 448 q 361 448 373 444 q 385 439 390 422 l 464 174 l 565 459 q 572 480 601 480 q 617 480 637 473 q 657 466 671 454 q 685 442 685 426 q 685 422 684 417 q 683 412 681 408 l 526 12 q 521 -1 507 -6 q 493 -11 476 -11 q 458 -11 443 -5 q 428 1 423 12 l 346 230 l 269 13 q 266 1 250 -5 q 234 -11 215 -11 z"},"-":{"x_min":0,"x_max":411,"ha":411,"o":"m 76 187 q 58 187 46 202 q 35 217 35 240 q 35 263 46 278 q 58 294 76 294 l 336 294 q 351 294 364 278 q 377 263 377 240 q 377 217 364 202 q 351 187 336 187 z"},"E":{"x_min":0,"x_max":530,"ha":530,"o":"m 117 0 q 96 0 78 10 q 60 21 60 41 l 60 690 q 60 710 78 720 q 96 731 117 731 l 473 731 q 495 731 504 713 q 514 695 514 675 q 514 651 504 634 q 493 617 473 617 l 190 617 l 190 417 l 342 417 q 362 417 372 402 q 383 386 383 365 q 383 348 374 332 q 364 315 342 315 l 190 315 l 190 114 l 473 114 q 493 114 504 97 q 514 80 514 56 q 514 36 504 18 q 495 0 473 0 z"},"s":{"x_min":0,"x_max":417,"ha":417,"o":"m 205 -9 q 155 -9 114 4 q 72 16 48 36 q 25 56 25 77 q 25 87 30 100 q 36 114 46 124 q 55 134 68 134 q 82 134 98 122 q 113 111 136 100 q 160 89 202 89 q 247 89 262 103 q 276 117 276 132 q 276 154 258 166 q 241 178 214 186 q 187 194 156 202 q 126 211 99 226 q 72 240 55 266 q 38 291 38 332 q 38 368 55 402 q 72 436 111 458 q 150 481 217 481 q 258 481 294 472 q 331 464 354 449 q 377 434 377 416 q 377 407 371 392 q 365 378 354 366 q 344 354 329 354 q 318 354 302 362 q 287 369 267 376 q 247 383 219 383 q 194 383 179 376 q 164 369 157 359 q 150 349 150 338 q 150 320 167 310 q 184 300 212 293 q 239 286 270 278 q 300 269 328 252 q 355 236 372 209 q 389 182 389 137 q 389 71 342 31 q 294 -9 205 -9 z"},">":{"x_min":0,"x_max":420,"ha":420,"o":"m 97 56 q 78 56 58 74 q 39 91 39 117 q 39 141 56 151 l 249 277 l 56 404 q 39 413 39 437 q 39 463 58 480 q 78 498 97 498 q 108 498 114 494 l 372 325 q 386 316 392 302 q 399 288 399 277 q 399 266 392 252 q 386 238 372 229 l 114 61 q 108 56 97 56 z"},"l":{"x_min":0,"x_max":247,"ha":247,"o":"m 123 0 q 95 0 77 13 q 59 26 59 41 l 59 712 q 59 730 77 741 q 95 752 123 752 q 150 752 169 741 q 188 730 188 712 l 188 41 q 188 26 169 13 q 150 0 123 0 z"},"8":{"x_min":0,"x_max":533,"ha":533,"o":"m 267 -6 q 201 -6 148 14 q 95 35 64 80 q 32 126 32 200 l 32 212 q 32 289 65 335 q 98 381 151 400 q 109 415 82 453 q 55 491 55 554 q 55 618 82 656 q 110 695 158 713 q 206 731 267 731 q 329 731 376 713 q 424 695 451 656 q 478 618 478 554 q 478 491 452 453 q 425 415 382 400 q 436 381 468 335 q 501 289 501 212 l 501 200 q 501 126 470 80 q 439 35 386 14 q 333 -6 267 -6 z m 267 100 q 317 100 344 128 q 371 157 371 215 l 371 235 q 371 292 344 318 q 316 345 267 345 q 218 345 190 318 q 162 292 162 235 l 162 215 q 162 155 190 128 q 219 100 267 100 z m 267 451 q 308 451 330 471 q 353 491 353 538 q 353 584 330 604 q 308 625 267 625 q 226 625 204 604 q 181 584 181 538 q 181 491 204 471 q 226 451 267 451 z"},"\\":{"x_min":0,"x_max":373,"ha":373,"o":"m 305 -1 q 291 -1 280 6 q 269 14 265 27 l 23 697 q 20 704 20 711 q 20 728 34 742 q 49 755 69 755 q 82 755 92 749 q 103 743 108 729 l 350 57 q 352 54 352 51 q 352 48 352 45 q 352 28 338 14 q 324 -1 305 -1 z"},"e":{"x_min":0,"x_max":485,"ha":485,"o":"m 274 -9 q 203 -9 148 16 q 94 42 63 88 q 32 135 32 196 l 32 281 q 32 335 62 380 q 91 426 140 454 q 190 481 251 481 q 307 481 354 457 q 400 433 429 391 q 458 349 458 293 q 458 250 444 232 q 430 213 408 208 q 387 204 364 204 l 161 204 l 161 189 q 161 146 194 120 q 226 93 278 93 q 311 93 333 103 q 355 113 371 122 q 387 131 401 131 q 416 131 427 121 q 438 111 444 98 q 450 84 450 74 q 450 57 428 38 q 407 18 368 4 q 328 -9 274 -9 z m 161 280 l 307 280 q 324 280 330 286 q 337 291 337 307 q 337 330 325 348 q 313 366 293 376 q 273 386 249 386 q 226 386 206 376 q 186 367 174 350 q 161 332 161 308 z"},"b":{"x_min":0,"x_max":519,"ha":519,"o":"m 311 -9 q 264 -9 226 15 q 188 39 172 70 l 172 41 q 172 26 156 13 q 139 0 114 0 q 87 0 69 13 q 51 26 51 41 l 51 712 q 51 730 69 741 q 87 752 114 752 q 142 752 161 741 q 180 730 180 712 l 180 405 q 196 434 229 458 q 262 481 308 481 q 357 481 398 454 q 438 426 462 380 q 486 334 486 278 l 486 196 q 486 143 462 96 q 438 49 398 20 q 358 -9 311 -9 z m 270 104 q 294 104 314 118 q 334 131 346 152 q 357 173 357 196 l 357 278 q 357 301 346 321 q 334 341 314 354 q 294 368 269 368 q 248 368 228 357 q 207 346 194 326 q 180 306 180 278 l 180 178 q 180 168 192 150 q 204 133 224 118 q 245 104 270 104 z"},"%":{"x_min":0,"x_max":793,"ha":793,"o":"m 221 -40 q 200 -40 187 -26 q 174 -12 174 4 q 174 13 178 21 l 538 750 q 548 771 574 771 q 591 771 608 758 q 624 746 624 726 q 624 716 620 708 l 260 -18 q 256 -28 245 -34 q 234 -40 221 -40 z m 171 328 q 110 328 70 358 q 29 387 29 457 l 29 602 q 29 673 70 702 q 110 731 171 731 q 212 731 244 718 q 276 706 295 678 q 314 650 314 602 l 314 457 q 314 410 295 382 q 276 353 244 340 q 212 328 171 328 z m 171 403 q 197 403 212 416 q 228 430 228 457 l 228 602 q 228 630 213 643 q 198 656 171 656 q 145 656 130 643 q 115 630 115 602 l 115 457 q 115 430 130 416 q 145 403 171 403 z m 621 -3 q 561 -3 520 26 q 479 55 479 126 l 479 271 q 479 341 520 370 q 561 400 621 400 q 662 400 694 388 q 726 375 745 346 q 764 318 764 271 l 764 126 q 764 79 745 50 q 726 22 694 10 q 662 -3 621 -3 z m 622 72 q 648 72 663 85 q 678 98 678 126 l 678 271 q 678 298 663 312 q 648 325 622 325 q 595 325 580 312 q 566 298 566 271 l 566 126 q 566 98 580 85 q 595 72 622 72 z"},"m":{"x_min":0,"x_max":803,"ha":803,"o":"m 114 0 q 86 0 68 13 q 50 26 50 41 l 50 435 q 50 453 68 464 q 86 475 114 475 q 138 475 154 464 q 171 453 171 435 l 171 405 q 188 434 221 458 q 254 481 304 481 q 347 481 380 453 q 413 425 429 381 q 455 432 496 456 q 536 481 579 481 q 625 481 666 458 q 706 434 732 388 q 757 343 757 278 l 757 41 q 757 26 738 13 q 719 0 692 0 q 666 0 647 13 q 628 26 628 41 l 628 278 q 628 308 616 328 q 605 348 586 358 q 567 369 547 369 q 527 369 510 358 q 492 348 480 328 q 468 308 468 279 l 468 40 q 468 19 448 10 q 427 0 403 0 q 381 0 360 10 q 339 19 339 40 l 339 278 q 339 306 328 326 q 316 346 298 357 q 279 368 258 368 q 238 368 220 358 q 202 348 190 328 q 179 308 179 278 l 179 41 q 179 26 160 13 q 141 0 114 0 z"},"#":{"x_min":0,"x_max":680,"ha":680,"o":"m 177 30 q 156 30 135 42 q 114 55 114 78 l 138 220 l 60 220 q 43 220 33 233 q 23 246 23 267 q 23 288 34 302 q 44 317 60 317 l 157 317 l 179 440 l 101 440 q 84 440 74 453 q 64 466 64 487 q 64 508 74 522 q 84 536 100 536 l 198 536 l 225 686 q 227 699 244 706 q 260 713 278 713 q 301 713 319 702 q 337 691 337 664 l 315 536 l 425 536 l 451 686 q 454 699 470 706 q 487 713 505 713 q 527 713 546 702 q 564 691 565 664 l 541 536 l 619 536 q 634 536 646 522 q 657 509 657 488 q 657 468 646 454 q 634 440 620 440 l 524 440 l 501 317 l 579 317 q 593 317 605 303 q 617 289 617 269 q 617 247 606 234 q 594 220 579 220 l 482 220 l 454 60 q 451 47 435 38 q 419 30 403 30 q 390 30 375 36 q 360 41 350 52 q 339 62 339 78 l 364 220 l 256 220 l 227 60 q 224 47 208 38 q 192 30 177 30 z m 274 317 l 383 317 l 405 440 l 297 440 z"},",":{"x_min":0,"x_max":191,"ha":191,"o":"m 81 -100 q 67 -100 52 -92 q 38 -83 38 -66 q 38 -59 41 -52 l 65 1 q 48 11 38 26 q 28 42 28 62 q 28 90 48 110 q 67 130 95 130 q 123 130 143 110 q 163 91 163 63 q 163 59 162 52 q 160 46 155 32 q 150 18 138 -10 q 127 -37 108 -83 q 104 -92 96 -96 q 88 -100 81 -100 z"},"n":{"x_min":0,"x_max":523,"ha":523,"o":"m 114 0 q 86 0 68 13 q 50 26 50 41 l 50 435 q 50 453 68 464 q 86 475 114 475 q 138 475 154 464 q 171 453 171 435 l 171 405 q 186 434 220 458 q 255 481 305 481 q 352 481 391 454 q 430 426 454 380 q 477 334 477 278 l 477 41 q 477 21 457 10 q 437 0 412 0 q 390 0 369 10 q 348 21 348 41 l 348 278 q 348 301 336 321 q 325 341 305 354 q 285 368 261 368 q 241 368 222 357 q 203 346 191 326 q 179 306 179 278 l 179 41 q 179 26 160 13 q 141 0 114 0 z"},"h":{"x_min":0,"x_max":524,"ha":524,"o":"m 115 0 q 87 0 69 13 q 51 26 51 41 l 51 712 q 51 730 69 741 q 87 752 115 752 q 142 752 161 741 q 180 730 180 712 l 180 405 q 195 434 227 458 q 259 481 306 481 q 353 481 392 454 q 431 426 454 380 q 478 334 478 278 l 478 41 q 478 21 458 10 q 438 0 413 0 q 391 0 370 10 q 349 21 349 41 l 349 278 q 349 301 337 321 q 325 341 306 354 q 286 368 262 368 q 242 368 223 357 q 204 346 192 326 q 180 306 180 278 l 180 41 q 180 26 161 13 q 142 0 115 0 z"},"z":{"x_min":0,"x_max":434,"ha":434,"o":"m 64 0 q 40 0 30 14 q 20 29 20 46 q 20 61 26 74 q 33 88 42 98 l 238 370 l 66 370 q 50 370 38 386 q 27 401 27 423 q 27 444 38 460 q 49 475 66 475 l 360 475 q 377 475 389 464 q 401 453 401 431 q 401 404 381 377 l 184 105 l 379 105 q 395 105 406 90 q 418 74 418 52 q 418 31 408 16 q 397 0 379 0 z"},"B":{"x_min":0,"x_max":562,"ha":562,"o":"m 117 0 q 91 0 76 12 q 60 24 60 40 l 60 690 q 60 710 78 720 q 96 731 117 731 l 311 731 q 362 731 408 716 q 454 702 483 664 q 512 626 512 555 q 512 494 489 454 q 466 413 427 396 q 458 385 481 366 q 504 346 517 314 q 530 283 530 233 l 530 212 q 530 134 504 88 q 477 41 432 20 q 386 0 330 0 z m 189 114 l 302 114 q 348 114 374 140 q 400 166 400 223 l 400 239 q 400 298 374 322 q 348 345 302 345 l 189 345 z m 189 447 l 302 447 q 343 447 362 471 q 382 495 382 533 q 382 560 372 578 q 362 597 344 607 q 326 617 301 617 l 189 617 z"},"K":{"x_min":0,"x_max":553,"ha":553,"o":"m 125 0 q 101 0 80 10 q 60 21 60 41 l 60 691 q 60 712 80 722 q 101 731 125 731 q 150 731 170 722 q 190 712 190 691 l 190 418 l 407 712 q 420 731 442 731 q 459 731 476 721 q 494 711 506 696 q 518 681 518 664 q 518 659 516 652 q 514 645 509 639 l 331 415 l 549 83 q 556 72 556 60 q 556 44 544 29 q 533 14 515 4 q 497 -5 478 -5 q 464 -5 452 1 q 441 7 432 20 l 244 305 l 190 237 l 190 41 q 190 21 170 10 q 150 0 125 0 z"},"R":{"x_min":0,"x_max":568,"ha":568,"o":"m 461 -5 q 448 -5 436 3 q 423 11 416 26 l 274 302 l 190 302 l 190 41 q 190 21 170 10 q 150 0 125 0 q 101 0 80 10 q 60 21 60 41 l 60 691 q 60 707 72 719 q 83 731 102 731 l 300 731 q 366 731 420 712 q 473 693 505 648 q 537 602 537 522 q 537 464 520 424 q 503 383 474 358 q 444 334 406 322 l 538 79 q 540 75 541 70 q 542 66 542 63 q 542 47 530 31 q 518 15 500 5 q 481 -5 461 -5 z m 190 404 l 300 404 q 349 404 378 428 q 407 452 407 510 q 407 570 378 594 q 349 617 300 617 l 190 617 z"},"T":{"x_min":0,"x_max":523,"ha":523,"o":"m 262 0 q 237 0 217 10 q 197 21 197 41 l 197 614 l 50 614 q 31 614 20 632 q 9 650 9 673 q 9 694 19 712 q 29 731 50 731 l 473 731 q 495 731 504 712 q 514 694 514 673 q 514 650 504 632 q 493 614 473 614 l 327 614 l 327 41 q 327 21 306 10 q 286 0 262 0 z"},"P":{"x_min":0,"x_max":557,"ha":557,"o":"m 125 0 q 101 0 80 10 q 60 21 60 41 l 60 691 q 60 707 74 719 q 88 731 110 731 l 310 731 q 374 731 426 709 q 477 687 507 638 q 537 588 537 506 l 537 500 q 537 418 506 368 q 475 318 422 296 q 368 273 302 273 l 190 273 l 190 41 q 190 21 170 10 q 150 0 125 0 z m 190 375 l 302 375 q 352 375 380 404 q 407 432 407 490 l 407 502 q 407 560 380 588 q 352 617 302 617 l 190 617 z"},"|":{"x_min":0,"x_max":240,"ha":240,"o":"m 119 -21 q 91 -21 73 -8 q 55 5 55 20 l 55 728 q 55 745 73 756 q 91 768 119 768 q 146 768 165 756 q 184 745 184 728 l 184 20 q 184 5 165 -8 q 146 -21 119 -21 z"},"t":{"x_min":0,"x_max":344,"ha":344,"o":"m 233 0 q 143 0 96 39 q 48 78 48 162 l 48 647 q 48 665 69 676 q 90 687 112 687 q 136 687 156 676 q 177 665 177 647 l 177 475 l 295 475 q 311 475 320 460 q 328 446 328 428 q 328 410 320 396 q 311 381 295 381 l 177 381 l 177 162 q 177 133 190 121 q 202 109 233 109 l 272 109 q 300 109 314 92 q 327 75 327 55 q 327 34 314 17 q 300 0 272 0 z"},"M":{"x_min":0,"x_max":699,"ha":699,"o":"m 125 0 q 101 0 80 10 q 60 21 60 41 l 60 666 q 60 702 80 716 q 101 731 125 731 q 149 731 166 726 q 182 721 196 706 q 211 691 227 662 l 349 438 l 472 662 q 490 691 504 706 q 517 721 534 726 q 551 731 574 731 q 599 731 619 716 q 639 702 639 666 l 639 41 q 639 21 618 10 q 598 0 574 0 q 550 0 530 10 q 509 21 509 41 l 509 471 l 393 263 q 384 249 372 243 q 360 237 348 237 q 337 237 326 242 q 314 248 305 263 l 190 479 l 190 41 q 190 21 170 10 q 150 0 125 0 z"},"g":{"x_min":0,"x_max":471,"ha":471,"o":"m 237 -221 q 178 -221 128 -204 q 77 -188 46 -156 q 16 -124 16 -80 q 16 -42 37 -16 q 58 11 89 26 q 70 35 58 50 q 47 65 47 90 q 47 118 62 136 q 76 153 98 168 q 68 191 52 224 q 36 256 36 295 l 36 316 q 36 365 60 402 q 84 439 128 460 q 173 481 231 481 q 264 481 293 474 q 322 466 345 452 q 362 492 377 506 q 392 520 406 520 q 430 520 444 506 q 457 492 457 480 q 457 471 452 464 q 448 457 440 452 q 431 446 418 438 q 405 429 394 414 q 412 394 420 370 q 429 345 429 316 l 429 295 q 429 247 404 210 q 379 172 334 150 q 289 128 231 128 q 195 128 166 137 q 161 133 158 128 q 154 123 154 117 q 154 100 176 93 q 198 86 232 82 q 266 78 304 72 q 343 65 377 51 q 411 37 433 10 q 455 -18 455 -64 q 455 -120 424 -154 q 392 -189 342 -205 q 293 -221 237 -221 z m 235 -138 q 274 -138 302 -119 q 329 -100 329 -68 q 329 -47 317 -34 q 305 -21 284 -14 q 264 -8 240 -4 q 216 -1 192 2 q 168 -9 153 -26 q 138 -43 138 -67 q 138 -100 166 -119 q 195 -138 235 -138 z m 233 206 q 266 206 285 231 q 304 256 304 295 l 304 316 q 304 353 286 378 q 267 403 232 403 q 198 403 180 378 q 161 353 161 316 l 161 296 q 161 258 180 232 q 198 206 233 206 z"},"j":{"x_min":0,"x_max":229,"ha":229,"o":"m 28 -221 q -12 -221 -26 -204 q -39 -188 -39 -168 q -39 -142 -24 -127 q -10 -112 10 -112 q 28 -112 36 -102 q 45 -92 48 -74 q 50 -55 50 -32 l 50 435 q 50 453 68 464 q 86 475 113 475 q 141 475 160 464 q 179 453 179 435 l 179 -32 q 179 -87 162 -130 q 145 -173 112 -197 q 78 -221 28 -221 z m 114 581 q 85 581 64 600 q 43 620 43 644 q 43 670 64 688 q 85 707 114 707 q 144 707 164 688 q 184 670 184 644 q 184 620 164 600 q 144 581 114 581 z"},"i":{"x_min":0,"x_max":228,"ha":228,"o":"m 114 0 q 86 0 68 13 q 50 26 50 41 l 50 435 q 50 453 68 464 q 86 475 114 475 q 141 475 160 464 q 179 453 179 435 l 179 41 q 179 26 160 13 q 141 0 114 0 z m 114 581 q 85 581 64 600 q 43 620 43 644 q 43 670 64 688 q 85 707 114 707 q 143 707 164 688 q 184 670 184 644 q 184 620 164 600 q 143 581 114 581 z"},"y":{"x_min":0,"x_max":474,"ha":474,"o":"m 64 -221 q 39 -221 22 -212 q 5 -202 5 -166 q 5 -144 12 -128 q 20 -112 38 -112 q 55 -112 78 -106 q 100 -100 123 -84 q 146 -67 162 -38 q 178 -10 181 35 l 9 403 q 5 412 5 420 q 5 437 20 451 q 34 465 54 474 q 74 482 91 482 q 103 482 114 477 q 124 472 128 460 l 248 161 l 344 460 q 349 472 359 477 q 369 482 379 482 q 394 482 415 474 q 436 465 452 450 q 467 436 467 418 q 467 409 464 403 l 318 30 q 300 -15 283 -60 q 266 -104 240 -140 q 215 -177 173 -199 q 131 -221 64 -221 z"},"@":{"x_min":0,"x_max":743,"ha":743,"o":"m 337 -132 q 280 -132 226 -111 q 173 -90 131 -48 q 89 -6 65 58 q 41 123 41 209 q 41 310 78 392 q 114 474 190 522 q 266 570 383 570 q 488 570 562 530 q 636 490 676 416 q 715 341 715 239 q 715 177 699 126 q 683 74 650 43 q 618 12 567 12 q 524 12 496 33 q 468 54 462 85 q 437 54 408 36 q 378 17 337 17 q 306 17 277 29 q 248 41 230 66 q 212 92 212 132 q 212 180 238 206 q 264 233 310 244 q 355 255 413 255 l 444 255 l 444 270 q 444 305 424 322 q 405 340 363 340 q 333 340 314 333 q 296 326 285 320 q 274 313 266 313 q 257 313 250 322 q 242 331 238 342 q 234 354 234 361 q 234 381 256 396 q 278 410 310 419 q 343 428 377 428 q 420 428 456 413 q 493 398 516 368 q 538 339 538 294 l 538 125 q 542 99 552 88 q 561 77 574 77 q 594 77 606 92 q 617 107 622 130 q 628 152 630 176 q 632 201 632 219 q 632 352 572 424 q 512 496 383 496 q 308 496 258 474 q 207 451 178 410 q 149 370 136 318 q 124 267 124 210 q 124 157 135 108 q 146 60 172 23 q 198 -14 242 -36 q 287 -58 352 -58 q 393 -58 418 -52 q 443 -45 459 -38 q 475 -32 485 -32 q 501 -32 509 -46 q 517 -60 517 -70 q 517 -86 498 -98 q 480 -109 451 -116 q 422 -124 392 -128 q 361 -132 337 -132 z m 361 86 q 384 86 404 98 q 424 110 436 128 q 449 147 449 168 l 449 199 l 425 199 q 391 199 366 193 q 341 187 328 172 q 315 158 315 134 q 315 110 328 98 q 340 86 361 86 z"},".":{"x_min":0,"x_max":191,"ha":191,"o":"m 96 -6 q 67 -6 48 14 q 28 35 28 62 q 28 90 48 110 q 67 130 96 130 q 123 130 143 110 q 163 90 163 62 q 163 35 143 14 q 123 -6 96 -6 z"},"p":{"x_min":0,"x_max":519,"ha":519,"o":"m 114 -221 q 87 -221 69 -208 q 51 -195 51 -180 l 51 435 q 51 453 69 464 q 87 475 113 475 q 139 475 156 464 q 172 453 172 435 l 172 405 q 189 434 224 458 q 259 481 307 481 q 357 481 398 454 q 439 426 462 380 q 486 334 486 278 l 486 196 q 486 143 462 96 q 438 49 398 20 q 358 -9 311 -9 q 267 -9 231 15 q 195 39 180 70 l 180 -180 q 180 -195 161 -208 q 142 -221 114 -221 z m 269 104 q 293 104 312 118 q 332 131 344 152 q 357 173 357 196 l 357 278 q 357 301 345 321 q 333 341 312 354 q 292 368 267 368 q 245 368 226 357 q 206 346 193 326 q 180 306 180 278 l 180 178 q 180 168 192 150 q 203 133 223 118 q 243 104 269 104 z"},"X":{"x_min":0,"x_max":559,"ha":559,"o":"m 98 -5 q 80 -5 60 4 q 40 13 26 28 q 12 42 12 60 q 12 71 20 84 l 193 366 l 26 647 q 17 661 17 675 q 17 692 30 706 q 43 720 62 728 q 82 736 100 736 q 116 736 126 728 q 137 721 143 708 l 279 463 l 416 708 q 423 721 434 728 q 444 736 459 736 q 477 736 496 728 q 516 720 529 706 q 542 692 542 675 q 542 661 533 647 l 366 366 l 539 84 q 547 71 547 60 q 547 42 533 28 q 519 13 500 4 q 480 -5 461 -5 q 450 -5 440 1 q 431 7 426 16 l 279 273 l 133 16 q 128 7 118 1 q 109 -5 98 -5 z"},"*":{"x_min":0,"x_max":475,"ha":475,"o":"m 139 326 q 129 326 116 332 q 104 337 94 347 q 85 357 85 371 q 85 386 95 398 l 165 496 l 55 528 q 40 532 33 544 q 26 555 26 571 q 26 589 39 604 q 52 619 73 619 q 74 619 78 618 q 81 618 85 616 l 197 579 l 192 690 q 192 711 206 721 q 220 731 238 731 q 256 731 269 721 q 282 711 283 690 l 279 578 l 391 616 q 398 619 404 619 q 423 619 436 602 q 448 585 448 566 q 448 553 441 542 q 434 532 419 528 l 310 501 l 384 397 q 390 389 390 373 q 390 352 374 339 q 357 326 338 326 q 331 326 322 329 q 313 332 306 343 l 238 446 l 169 342 q 163 332 156 329 q 148 326 139 326 z"},"Y":{"x_min":0,"x_max":572,"ha":572,"o":"m 286 0 q 262 0 242 10 q 221 21 221 41 l 221 293 q 221 300 218 306 l 11 664 q 9 668 8 672 q 8 675 8 677 q 8 693 22 705 q 36 717 56 724 q 76 731 94 731 q 110 731 118 724 q 126 718 133 705 l 286 416 l 438 705 q 446 718 454 724 q 462 731 478 731 q 496 731 516 724 q 535 717 550 705 q 564 693 564 677 q 564 675 564 672 q 563 668 561 664 l 354 306 q 351 300 351 293 l 351 41 q 351 21 330 10 q 310 0 286 0 z"},"c":{"x_min":0,"x_max":433,"ha":433,"o":"m 251 -9 q 175 -9 127 18 q 79 45 56 92 q 33 138 33 196 l 33 276 q 33 334 56 380 q 78 427 126 454 q 175 481 249 481 q 296 481 332 470 q 368 459 389 441 q 410 423 410 403 q 410 392 404 377 q 397 362 386 351 q 374 340 359 340 q 348 340 336 347 q 325 354 307 361 q 289 368 259 368 q 208 368 185 344 q 162 319 162 276 l 162 196 q 162 153 185 128 q 208 104 260 104 q 291 104 308 112 q 325 120 336 127 q 348 134 360 134 q 378 134 390 124 q 403 114 410 100 q 416 85 416 73 q 416 53 394 34 q 373 15 336 3 q 298 -9 251 -9 z"},"!":{"x_min":0,"x_max":221,"ha":221,"o":"m 111 202 q 91 202 76 211 q 61 220 61 240 q 61 306 58 383 q 55 460 52 537 q 48 614 48 680 q 48 706 66 720 q 84 735 111 735 q 136 735 154 720 q 173 706 173 680 q 173 614 170 537 q 167 460 164 383 q 160 306 160 240 q 160 220 143 211 q 126 202 111 202 z m 112 -6 q 83 -6 64 14 q 44 35 44 62 q 44 90 64 110 q 83 130 112 130 q 139 130 159 110 q 179 90 179 62 q 179 35 159 14 q 139 -6 112 -6 z"},"/":{"x_min":0,"x_max":486,"ha":486,"o":"m 65 -40 q 45 -40 32 -26 q 18 -12 18 4 q 18 13 22 21 l 382 750 q 392 771 418 771 q 436 771 452 758 q 468 746 468 726 q 468 716 464 708 l 104 -18 q 100 -28 88 -34 q 77 -40 65 -40 z"},"[":{"x_min":0,"x_max":340,"ha":340,"o":"m 112 -21 q 91 -21 73 -10 q 55 0 55 20 l 55 727 q 55 747 73 758 q 91 768 112 768 l 284 768 q 305 768 315 750 q 325 732 325 712 q 325 688 314 671 q 304 654 284 654 l 185 654 l 185 93 l 284 93 q 304 93 314 76 q 325 59 325 35 q 325 15 315 -3 q 305 -21 284 -21 z"},"6":{"x_min":0,"x_max":549,"ha":549,"o":"m 280 -6 q 214 -6 161 16 q 108 39 76 90 q 45 140 45 223 l 45 502 q 45 585 77 636 q 109 686 164 708 q 218 731 287 731 q 346 731 389 714 q 432 698 460 671 q 488 644 501 612 q 514 579 514 548 q 514 518 499 506 q 484 494 453 494 q 427 494 406 504 q 386 514 386 543 q 386 566 372 582 q 357 599 334 608 q 311 617 283 617 q 232 617 204 589 q 175 561 175 502 l 175 393 q 199 422 234 433 q 268 444 307 444 q 364 444 410 425 q 457 406 486 361 q 514 316 514 237 l 514 223 q 514 140 483 90 q 452 39 399 16 q 346 -6 280 -6 z m 280 100 q 329 100 356 128 q 384 155 384 215 l 384 228 q 384 290 356 316 q 329 342 279 342 q 232 342 204 318 q 175 294 175 237 l 175 215 q 175 155 203 128 q 231 100 280 100 z"},"r":{"x_min":0,"x_max":375,"ha":375,"o":"m 113 0 q 86 0 68 13 q 50 26 50 41 l 50 435 q 50 453 68 464 q 86 475 113 475 q 138 475 154 464 q 171 453 171 435 l 171 394 q 182 416 200 436 q 219 455 243 468 q 267 481 294 481 l 325 481 q 344 481 358 464 q 372 448 372 425 q 372 401 358 384 q 344 368 325 368 l 294 368 q 266 368 240 350 q 213 331 196 298 q 179 266 179 220 l 179 41 q 179 26 160 13 q 141 0 113 0 z"},"2":{"x_min":0,"x_max":505,"ha":505,"o":"m 83 0 q 66 0 46 12 q 26 23 26 41 l 26 138 q 26 178 49 212 q 72 247 109 278 q 146 309 187 338 q 228 367 264 397 q 301 427 324 458 q 348 489 348 524 q 348 545 338 566 q 329 586 308 600 q 288 613 255 613 q 219 613 192 592 q 166 572 166 525 q 166 507 148 492 q 130 477 98 477 q 72 477 56 492 q 40 507 40 547 q 40 604 70 646 q 100 687 150 709 q 199 731 254 731 q 312 731 364 706 q 415 682 446 637 q 478 592 478 528 q 478 475 455 432 q 432 389 396 354 q 360 319 320 290 q 279 262 243 238 q 207 213 184 189 q 161 165 161 138 l 161 114 l 439 114 q 456 114 468 98 q 480 81 480 58 q 480 35 468 18 q 456 0 439 0 z"},"{":{"x_min":0,"x_max":359,"ha":359,"o":"m 272 -20 q 221 -20 173 0 q 125 21 94 58 q 64 94 64 141 q 64 152 66 170 q 68 187 70 209 q 73 231 75 252 q 77 273 79 288 q 81 304 81 311 q 81 326 72 332 q 63 337 51 340 q 39 344 30 354 q 21 363 21 386 q 21 409 30 418 q 39 428 51 432 q 63 435 72 440 q 81 444 81 459 q 81 467 78 484 q 75 502 72 523 q 70 544 67 564 q 64 584 64 596 q 64 630 82 661 q 100 692 130 716 q 161 740 198 754 q 235 768 274 768 q 316 768 331 750 q 346 731 346 711 q 346 692 336 675 q 325 658 305 658 q 285 658 259 650 q 233 642 214 624 q 194 607 194 579 q 194 569 197 550 q 200 532 202 510 q 205 488 208 470 q 211 452 211 443 q 211 422 198 404 q 184 387 175 384 q 186 381 198 364 q 211 347 211 326 q 211 317 208 293 q 205 269 202 240 q 200 212 197 188 q 194 165 194 156 q 194 136 206 124 q 218 111 236 104 q 254 96 272 93 q 291 90 305 90 q 322 90 330 81 q 339 72 342 60 q 346 47 346 36 q 346 7 327 -6 q 308 -20 272 -20 z"},"9":{"x_min":0,"x_max":550,"ha":550,"o":"m 264 -6 q 204 -6 161 10 q 118 27 90 54 q 62 81 49 114 q 36 146 36 177 q 36 208 52 220 q 67 231 97 231 q 124 231 144 222 q 165 212 165 182 q 165 159 179 142 q 193 126 216 117 q 239 108 267 108 q 318 108 347 136 q 376 164 376 223 l 376 332 q 351 303 316 292 q 282 281 243 281 q 186 281 139 300 q 92 319 64 364 q 36 409 36 488 l 36 502 q 36 585 67 636 q 98 686 151 708 q 204 731 270 731 q 336 731 390 708 q 443 686 474 636 q 506 585 506 502 l 506 223 q 506 140 474 90 q 441 39 386 16 q 332 -6 264 -6 z m 271 383 q 319 383 348 408 q 376 432 376 488 l 376 510 q 376 570 348 598 q 320 625 270 625 q 221 625 194 598 q 166 570 166 510 l 166 497 q 166 435 194 409 q 221 383 271 383 z"}," ":{"x_min":0,"x_max":200,"ha":200,"o":""},"I":{"x_min":0,"x_max":251,"ha":251,"o":"m 125 0 q 101 0 80 10 q 60 21 60 41 l 60 691 q 60 712 80 722 q 101 731 125 731 q 150 731 170 722 q 190 712 190 691 l 190 41 q 190 21 170 10 q 150 0 125 0 z"},"H":{"x_min":0,"x_max":606,"ha":606,"o":"m 125 0 q 101 0 80 10 q 60 21 60 41 l 60 691 q 60 712 80 722 q 101 731 125 731 q 150 731 170 722 q 190 712 190 691 l 190 430 l 415 430 l 415 691 q 415 712 436 722 q 456 731 480 731 q 505 731 525 722 q 545 712 545 691 l 545 41 q 545 21 525 10 q 505 0 480 0 q 456 0 436 10 q 415 21 415 41 l 415 328 l 190 328 l 190 41 q 190 21 170 10 q 150 0 125 0 z"},"4":{"x_min":0,"x_max":502,"ha":502,"o":"m 348 0 q 323 0 303 10 q 283 21 283 41 l 283 159 l 43 159 q 24 159 11 172 q -2 184 -2 205 q -2 211 0 218 q 2 225 5 231 l 242 697 q 252 716 266 724 q 281 731 297 731 q 309 731 324 725 q 339 719 350 708 q 362 697 362 681 q 362 675 357 664 l 165 280 l 283 280 l 283 385 q 283 407 303 416 q 323 426 348 426 q 372 426 392 416 q 413 407 413 385 l 413 280 l 459 280 q 480 280 490 261 q 501 242 501 219 q 501 197 488 178 q 475 159 459 159 l 413 159 l 413 41 q 413 21 392 10 q 372 0 348 0 z"},"~":{"x_min":0,"x_max":409,"ha":409,"o":"m 291 199 q 258 199 235 206 q 212 214 192 221 q 173 228 148 228 q 127 228 112 222 q 98 216 88 210 q 77 204 66 204 q 54 204 46 212 q 39 220 36 230 q 33 241 33 246 q 33 269 44 282 q 54 296 68 303 q 82 310 96 312 q 111 314 119 314 q 149 314 170 307 q 192 300 214 292 q 235 285 261 285 q 283 285 297 291 q 311 297 322 303 q 332 309 343 309 q 356 309 363 300 q 370 292 372 282 q 375 272 375 267 q 375 243 365 230 q 355 217 341 210 q 327 203 313 201 q 299 199 291 199 z"},"D":{"x_min":0,"x_max":581,"ha":581,"o":"m 117 0 q 91 0 76 12 q 60 24 60 40 l 60 691 q 60 707 76 719 q 91 731 117 731 l 294 731 q 361 731 414 708 q 467 686 498 636 q 530 585 530 502 l 530 229 q 530 146 498 96 q 467 45 414 22 q 361 0 294 0 z m 190 114 l 294 114 q 344 114 372 142 q 400 171 400 229 l 400 502 q 400 560 372 588 q 344 617 295 617 l 190 617 z"},"^":{"x_min":0,"x_max":285,"ha":285,"o":"m 28 576 q 16 576 8 588 q 0 601 0 616 q 0 627 5 637 q 10 647 22 653 l 126 709 q 135 714 143 714 q 150 714 160 709 l 264 654 q 276 648 280 638 q 285 627 285 615 q 285 601 278 588 q 270 576 257 576 q 255 576 252 577 q 249 578 247 579 l 143 635 l 39 579 q 36 578 33 577 q 30 576 28 576 z"},"0":{"x_min":0,"x_max":559,"ha":559,"o":"m 279 -6 q 213 -6 160 16 q 107 39 76 90 q 45 140 45 223 l 45 502 q 45 585 76 636 q 107 686 160 708 q 213 731 279 731 q 345 731 398 708 q 452 686 483 636 q 514 585 514 502 l 514 223 q 514 140 483 90 q 452 39 398 16 q 345 -6 279 -6 z m 279 108 q 328 108 356 136 q 384 164 384 223 l 384 502 q 384 561 356 589 q 328 617 279 617 q 230 617 202 589 q 175 561 175 502 l 175 223 q 175 164 202 136 q 230 108 279 108 z m 279 315 q 258 315 246 328 q 233 342 233 362 q 233 383 246 396 q 258 408 279 408 q 301 408 314 396 q 326 383 326 362 q 326 342 314 328 q 301 315 279 315 z"},"F":{"x_min":0,"x_max":509,"ha":509,"o":"m 125 0 q 101 0 80 10 q 60 21 60 41 l 60 690 q 60 710 78 720 q 96 731 117 731 l 466 731 q 488 731 498 713 q 507 695 507 675 q 507 651 496 634 q 486 617 466 617 l 190 617 l 190 417 l 343 417 q 363 417 374 402 q 384 386 384 365 q 384 348 374 332 q 365 315 343 315 l 190 315 l 190 41 q 190 21 170 10 q 150 0 125 0 z"},"`":{"x_min":0,"x_max":202,"ha":202,"o":""},"k":{"x_min":0,"x_max":493,"ha":493,"o":"m 114 0 q 87 0 69 13 q 51 26 51 41 l 51 712 q 51 730 69 741 q 87 752 114 752 q 142 752 161 741 q 180 730 180 712 l 180 293 l 369 470 q 379 480 394 480 q 409 480 424 470 q 438 461 448 447 q 457 433 457 418 q 457 412 454 406 q 452 399 446 394 l 328 287 l 476 77 q 483 66 483 56 q 483 41 471 26 q 459 11 442 2 q 425 -8 409 -8 q 389 -8 377 9 l 243 208 l 180 151 l 180 41 q 180 26 161 13 q 142 0 114 0 z"},"u":{"x_min":0,"x_max":524,"ha":524,"o":"m 263 -9 q 203 -9 154 20 q 104 48 74 94 q 45 141 45 194 l 45 434 q 45 449 64 462 q 84 475 110 475 q 136 475 155 462 q 174 449 174 434 l 174 194 q 174 171 186 151 q 198 131 218 118 q 238 104 262 104 q 287 104 306 117 q 326 130 338 151 q 350 172 350 194 l 350 435 q 350 451 370 463 q 389 475 414 475 q 443 475 461 463 q 479 451 479 435 l 479 194 q 479 140 450 94 q 420 47 370 19 q 321 -9 263 -9 z"},"]":{"x_min":0,"x_max":340,"ha":340,"o":"m 56 -21 q 35 -21 25 -3 q 15 15 15 35 q 15 59 26 76 q 37 93 56 93 l 155 93 l 155 654 l 56 654 q 37 654 26 671 q 15 688 15 712 q 15 732 25 750 q 35 768 56 768 l 227 768 q 250 768 268 758 q 285 747 285 727 l 285 20 q 285 0 267 -10 q 249 -21 227 -21 z"},"U":{"x_min":0,"x_max":594,"ha":594,"o":"m 297 -6 q 229 -6 175 16 q 121 39 89 90 q 57 140 57 223 l 57 691 q 57 712 77 722 q 97 731 122 731 q 146 731 166 722 q 187 712 187 691 l 187 223 q 187 165 216 136 q 245 108 297 108 q 348 108 378 136 q 407 165 407 223 l 407 691 q 407 712 426 722 q 446 731 472 731 q 496 731 516 722 q 537 712 537 691 l 537 223 q 537 140 505 90 q 473 39 418 16 q 364 -6 297 -6 z"},"o":{"x_min":0,"x_max":497,"ha":497,"o":"m 248 -9 q 190 -9 141 20 q 92 48 62 95 q 32 142 32 196 l 32 278 q 32 332 61 378 q 90 425 140 453 q 189 481 248 481 q 307 481 356 454 q 406 426 436 380 q 465 334 465 278 l 465 196 q 465 143 435 96 q 405 49 356 20 q 306 -9 248 -9 z m 248 104 q 272 104 292 117 q 312 130 324 152 q 336 173 336 196 l 336 278 q 336 301 324 321 q 312 341 292 354 q 273 368 248 368 q 224 368 204 355 q 184 342 172 322 q 161 301 161 278 l 161 196 q 161 173 172 152 q 184 130 204 117 q 224 104 248 104 z"},"N":{"x_min":0,"x_max":606,"ha":606,"o":"m 125 0 q 101 0 80 10 q 60 21 60 41 l 60 690 q 60 711 80 721 q 101 731 125 731 q 149 731 164 726 q 180 721 194 706 q 207 692 222 662 l 415 289 l 415 691 q 415 712 436 722 q 456 731 480 731 q 505 731 525 722 q 545 712 545 691 l 545 41 q 545 21 525 10 q 505 0 480 0 q 457 0 438 9 q 418 18 406 41 l 190 443 l 190 41 q 190 21 170 10 q 150 0 125 0 z"},"+":{"x_min":0,"x_max":449,"ha":449,"o":"m 225 40 q 202 40 186 51 q 171 62 171 80 l 171 187 l 64 187 q 46 187 34 202 q 23 217 23 240 q 23 263 34 278 q 46 294 64 294 l 171 294 l 171 400 q 171 416 186 428 q 202 441 225 441 q 249 441 264 428 q 278 416 278 400 l 278 294 l 384 294 q 400 294 412 278 q 425 263 425 240 q 425 217 412 202 q 400 187 384 187 l 278 187 l 278 80 q 278 62 264 51 q 249 40 225 40 z"},"G":{"x_min":0,"x_max":564,"ha":564,"o":"m 287 -6 q 221 -6 168 16 q 115 39 84 90 q 53 140 53 223 l 53 502 q 53 585 84 636 q 115 686 168 708 q 220 731 283 731 q 353 731 406 708 q 460 685 491 642 q 522 599 522 539 q 522 502 506 490 q 490 477 457 477 q 431 477 412 486 q 393 495 392 518 q 391 542 382 564 q 374 587 352 602 q 331 617 287 617 q 238 617 210 588 q 182 560 182 502 l 182 223 q 182 165 210 136 q 238 108 287 108 q 336 108 364 136 q 392 165 392 223 l 392 282 l 311 282 q 292 282 282 298 q 271 314 271 333 q 271 352 282 368 q 292 384 311 384 l 481 384 q 501 384 512 372 q 522 359 522 342 l 522 223 q 522 140 491 90 q 460 39 406 16 q 353 -6 287 -6 z"},"q":{"x_min":0,"x_max":519,"ha":519,"o":"m 405 -221 q 377 -221 358 -208 q 339 -195 339 -180 l 339 70 q 325 39 288 15 q 252 -9 208 -9 q 161 -9 121 20 q 81 49 57 96 q 33 143 33 196 l 33 278 q 33 334 56 380 q 80 426 121 454 q 162 481 212 481 q 260 481 295 458 q 330 434 347 405 l 347 435 q 347 453 364 464 q 380 475 406 475 q 432 475 450 464 q 468 453 468 435 l 468 -180 q 468 -195 450 -208 q 432 -221 405 -221 z m 250 104 q 276 104 296 118 q 316 133 328 150 q 339 168 339 178 l 339 278 q 339 306 326 326 q 314 346 294 357 q 274 368 252 368 q 227 368 206 354 q 186 341 174 321 q 162 301 162 278 l 162 196 q 162 173 174 152 q 187 131 207 118 q 227 104 250 104 z"},"d":{"x_min":0,"x_max":519,"ha":519,"o":"m 208 -9 q 161 -9 121 20 q 81 49 57 96 q 33 143 33 196 l 33 278 q 33 334 57 380 q 81 426 121 454 q 161 481 210 481 q 257 481 290 458 q 323 434 339 405 l 339 712 q 339 730 358 741 q 377 752 405 752 q 432 752 450 741 q 468 730 468 712 l 468 41 q 468 26 450 13 q 432 0 405 0 q 381 0 364 13 q 347 26 347 41 l 347 70 q 332 39 294 15 q 255 -9 208 -9 z m 249 104 q 275 104 295 118 q 315 133 327 150 q 339 168 339 178 l 339 278 q 339 306 326 326 q 312 346 292 357 q 271 368 250 368 q 226 368 206 354 q 185 341 174 321 q 162 301 162 278 l 162 196 q 162 173 174 152 q 185 131 205 118 q 225 104 249 104 z"},"1":{"x_min":0,"x_max":287,"ha":287,"o":"m 165 0 q 141 0 120 10 q 100 21 100 41 l 100 575 l 68 543 q 62 539 56 536 q 50 534 45 534 q 26 534 14 550 q 3 567 3 586 q 3 600 9 612 q 15 625 27 633 l 145 723 q 151 728 158 730 q 164 733 173 733 q 193 733 212 722 q 230 710 230 691 l 230 41 q 230 21 210 10 q 190 0 165 0 z"},"5":{"x_min":0,"x_max":508,"ha":508,"o":"m 253 -6 q 177 -6 124 20 q 71 46 44 88 q 17 129 17 175 q 17 210 34 222 q 51 234 82 234 q 123 234 135 220 q 147 205 147 184 q 147 160 160 143 q 174 126 198 117 q 221 108 250 108 q 300 108 328 135 q 356 162 356 219 l 356 238 q 356 295 328 322 q 300 350 251 350 l 103 350 q 73 350 62 364 q 51 378 51 401 q 51 408 52 414 q 52 420 53 427 l 78 690 q 79 709 86 720 q 92 731 103 731 l 411 731 q 431 731 440 714 q 450 696 450 674 q 450 653 440 635 q 431 617 411 617 l 186 617 l 174 452 l 251 452 q 317 452 370 432 q 423 411 454 364 q 486 316 486 238 l 486 219 q 486 138 454 88 q 423 38 370 16 q 317 -6 253 -6 z"}}}
